<svg width="534" height="534" viewBox="0 0 534 534" fill="none" xmlns="http://www.w3.org/2000/svg"><script xmlns=""/><path d="M266.667 533.333C413.943 533.333 533.333 413.943 533.333 266.667C533.333 119.391 413.943 0 266.667 0C119.391 0 0 119.391 0 266.667C0 413.943 119.391 533.333 266.667 533.333Z" fill="url(#paint0_linear)"/><path d="M408.012 291.99C443.487 250.081 455.873 207.931 438.835 178.423C426.3 156.708 399.798 145.244 364.575 144.785C363.115 144.788 361.715 145.364 360.677 146.39C359.639 147.417 359.046 148.81 359.027 150.27C359.008 151.729 359.565 153.138 360.576 154.191C361.587 155.243 362.972 155.856 364.431 155.896C396.108 156.308 418.942 166.185 429.215 183.979C443.365 208.49 432.319 246.077 399.531 284.81C399.05 285.366 398.684 286.011 398.454 286.709C398.224 287.408 398.135 288.144 398.192 288.877C398.249 289.61 398.45 290.324 398.785 290.978C399.12 291.632 399.581 292.214 400.142 292.689C400.703 293.163 401.352 293.522 402.053 293.744C402.753 293.966 403.491 294.047 404.223 293.982C404.955 293.917 405.667 293.708 406.317 293.366C406.968 293.023 407.544 292.556 408.012 291.99ZM316.844 149.958C284.769 156.831 250.627 170.269 217.84 189.198C136.71 236.037 83.7874 305.106 91.1374 355.187C91.2354 355.916 91.4771 356.618 91.8485 357.253C92.2198 357.888 92.7135 358.442 93.3008 358.885C93.8881 359.327 94.5574 359.649 95.2699 359.831C95.9824 360.013 96.7239 360.051 97.4515 359.944C98.179 359.837 98.8781 359.587 99.5082 359.208C100.138 358.829 100.687 358.329 101.122 357.736C101.558 357.144 101.871 356.47 102.044 355.756C102.217 355.041 102.247 354.299 102.131 353.573C95.6041 309.106 145.771 243.637 223.396 198.821C255.202 180.456 288.26 167.446 319.171 160.823C319.894 160.68 320.582 160.395 321.194 159.984C321.806 159.573 322.33 159.044 322.736 158.429C323.142 157.813 323.421 157.123 323.557 156.398C323.693 155.673 323.684 154.929 323.529 154.208C323.375 153.487 323.078 152.804 322.657 152.199C322.236 151.593 321.699 151.078 321.077 150.682C320.455 150.287 319.76 150.019 319.033 149.895C318.306 149.771 317.562 149.792 316.844 149.958V149.958Z" fill="#9feaf9"/><path d="M211.933 148.108C157.756 138.242 114.919 148.569 97.8458 178.14C85.1062 200.206 88.7478 229.462 106.679 260.735C107.033 261.385 107.513 261.957 108.092 262.419C108.67 262.88 109.334 263.221 110.046 263.423C110.758 263.624 111.503 263.681 112.237 263.59C112.971 263.5 113.68 263.264 114.322 262.896C114.963 262.528 115.525 262.035 115.974 261.447C116.423 260.859 116.75 260.188 116.936 259.472C117.121 258.755 117.162 258.01 117.056 257.277C116.95 256.545 116.698 255.842 116.317 255.208C100.167 227.037 97.0228 201.79 107.469 183.696C121.652 159.131 159.86 149.919 209.942 159.04C211.381 159.279 212.856 158.943 214.05 158.104C215.243 157.265 216.059 155.99 216.32 154.555C216.582 153.119 216.268 151.639 215.448 150.433C214.627 149.227 213.364 148.392 211.933 148.108Z" fill="#9feaf9"/><path d="M298.488 204.045L234.806 216.594C233.76 216.8 232.985 217.692 232.922 218.763L229.004 285.297C228.912 286.864 230.343 288.081 231.864 287.728L249.594 283.613C251.253 283.228 252.752 284.698 252.411 286.375L247.143 312.315C246.789 314.061 248.419 315.554 250.114 315.036L261.065 311.69C262.762 311.172 264.394 312.669 264.035 314.416L255.664 355.162C255.14 357.711 258.511 359.101 259.917 356.916L260.856 355.456L312.747 251.312C313.616 249.569 312.117 247.58 310.213 247.95L291.963 251.492C290.248 251.824 288.789 250.218 289.273 248.531L301.184 207.005C301.669 205.315 300.205 203.707 298.488 204.045Z" fill="url(#paint1_linear)"/><path d="M217.677 364.14C185.219 345.402 156.758 322.821 134.852 298.748C134.358 298.209 133.975 297.577 133.725 296.89C133.475 296.202 133.363 295.472 133.396 294.742C133.429 294.011 133.606 293.294 133.917 292.632C134.228 291.97 134.666 291.375 135.207 290.883C135.748 290.391 136.381 290.01 137.07 289.763C137.758 289.516 138.489 289.407 139.219 289.443C139.95 289.479 140.666 289.658 141.327 289.972C141.988 290.285 142.581 290.726 143.071 291.269C164.185 314.473 191.746 336.34 223.233 354.519C298.527 397.99 378.002 409.51 414.906 384.348C415.508 383.922 416.189 383.619 416.91 383.459C417.63 383.299 418.375 383.284 419.101 383.414C419.827 383.545 420.52 383.819 421.139 384.22C421.758 384.622 422.291 385.142 422.707 385.752C423.123 386.362 423.413 387.048 423.56 387.771C423.708 388.494 423.71 389.239 423.567 389.963C423.424 390.686 423.137 391.374 422.725 391.986C422.313 392.598 421.783 393.122 421.167 393.527C379.933 421.642 296.267 409.515 217.677 364.14Z" fill="#9feaf9"/><path d="M185.408 389.906C203.958 441.698 234.302 473.587 268.423 473.587C293.308 473.587 316.331 456.623 334.285 426.758C334.674 426.133 334.934 425.436 335.051 424.709C335.168 423.982 335.139 423.239 334.967 422.523C334.794 421.807 334.481 421.133 334.045 420.539C333.609 419.945 333.06 419.444 332.428 419.065C331.797 418.685 331.097 418.435 330.368 418.329C329.639 418.222 328.897 418.262 328.184 418.445C327.47 418.628 326.8 418.951 326.213 419.396C325.626 419.84 325.133 420.397 324.762 421.033C308.627 447.873 288.808 462.475 268.423 462.475C240.079 462.475 213.015 434.033 195.871 386.162C195.636 385.461 195.264 384.814 194.776 384.259C194.288 383.704 193.694 383.252 193.029 382.929C192.364 382.606 191.641 382.419 190.903 382.379C190.165 382.339 189.426 382.447 188.73 382.696C188.034 382.945 187.395 383.331 186.85 383.83C186.304 384.329 185.864 384.932 185.555 385.604C185.246 386.275 185.074 387.001 185.049 387.74C185.024 388.479 185.147 389.215 185.41 389.906H185.408ZM354.829 379.775C364.433 349.092 369.59 313.696 369.59 276.81C369.59 184.771 337.375 105.429 291.492 85.0562C290.151 84.4948 288.644 84.4809 287.294 85.0174C285.943 85.554 284.857 86.5983 284.267 87.9265C283.677 89.2546 283.631 90.761 284.139 92.1226C284.647 93.4842 285.668 94.5927 286.983 95.2104C327.906 113.383 358.477 188.681 358.477 276.81C358.477 312.596 353.483 346.873 344.227 376.456C343.997 377.156 343.908 377.894 343.966 378.628C344.024 379.362 344.227 380.077 344.564 380.732C344.901 381.387 345.364 381.968 345.928 382.442C346.491 382.917 347.143 383.274 347.846 383.494C348.549 383.714 349.288 383.792 350.021 383.724C350.754 383.655 351.467 383.442 352.117 383.096C352.767 382.75 353.341 382.278 353.807 381.708C354.273 381.138 354.621 380.481 354.831 379.775H354.829ZM459.462 374.333C459.462 359.648 447.558 347.744 432.873 347.744C418.187 347.744 406.283 359.648 406.283 374.333C406.283 389.019 418.187 400.923 432.873 400.923C447.558 400.923 459.462 389.019 459.462 374.333ZM448.352 374.333C448.352 376.366 447.952 378.379 447.174 380.257C446.396 382.135 445.256 383.841 443.818 385.279C442.381 386.716 440.674 387.856 438.796 388.634C436.918 389.412 434.906 389.812 432.873 389.812C430.84 389.812 428.827 389.412 426.949 388.634C425.071 387.856 423.365 386.716 421.927 385.279C420.49 383.841 419.35 382.135 418.572 380.257C417.794 378.379 417.394 376.366 417.394 374.333C417.394 370.228 419.025 366.291 421.927 363.388C424.83 360.485 428.768 358.854 432.873 358.854C436.978 358.854 440.915 360.485 443.818 363.388C446.721 366.291 448.352 370.228 448.352 374.333ZM103.59 400.923C118.277 400.923 130.181 389.019 130.181 374.333C130.181 359.648 118.275 347.744 103.59 347.744C88.9062 347.744 77 359.648 77 374.333C77 389.019 88.9062 400.923 103.59 400.923ZM103.59 389.812C99.4843 389.812 95.5471 388.182 92.6442 385.279C89.7413 382.376 88.1104 378.439 88.1104 374.333C88.1104 370.228 89.7413 366.291 92.6442 363.388C95.5471 360.485 99.4843 358.854 103.59 358.854C107.695 358.854 111.632 360.485 114.535 363.388C117.438 366.291 119.069 370.228 119.069 374.333C119.069 378.439 117.438 382.376 114.535 385.279C111.632 388.182 107.695 389.812 103.59 389.812Z" fill="#9feaf9"/><path d="M268.423 112.179C283.108 112.179 295.013 100.275 295.013 85.5896C295.013 70.9042 283.108 59 268.423 59C253.738 59 241.833 70.9042 241.833 85.5896C241.833 100.275 253.738 112.179 268.423 112.179ZM268.423 101.069C264.318 101.069 260.38 99.4379 257.478 96.535C254.575 93.6321 252.944 89.6949 252.944 85.5896C252.944 81.4843 254.575 77.5471 257.478 74.6442C260.38 71.7413 264.318 70.1104 268.423 70.1104C272.528 70.1104 276.465 71.7413 279.368 74.6442C282.271 77.5471 283.902 81.4843 283.902 85.5896C283.902 89.6949 282.271 93.6321 279.368 96.535C276.465 99.4379 272.528 101.069 268.423 101.069Z" fill="#9feaf9"/><defs><linearGradient id="paint0_linear" x1="6.00017" y1="32.9999" x2="235" y2="344" gradientUnits="userSpaceOnUse"><stop stop-color="#41D1FF"/><stop offset="1" stop-color="#BD34FE"/></linearGradient><linearGradient id="paint1_linear" x1="194.651" y1="8.81818" x2="236.076" y2="292.989" gradientUnits="userSpaceOnUse"><stop stop-color="#FFEA83"/><stop offset="0.0833333" stop-color="#FFDD35"/><stop offset="1" stop-color="#FFA800"/></linearGradient></defs></svg>