<?xml version="1.0" encoding="UTF-8"?>
<svg version="1.1" xmlns="http://www.w3.org/2000/svg" width="48" height="48">
<path d="M0 0 C5.82485779 3.51996782 10.54466582 8.98962934 12.5625 15.5 C13.36764105 23.33608208 13.68710392 31.11922577 8.5625 37.5 C3.75801361 42.54521222 -0.59927055 46.10562995 -7.70703125 46.8359375 C-16.22326573 46.92983204 -22.11345494 46.6177288 -28.40234375 40.62890625 C-34.7841668 33.72505269 -35.91792252 28.29832071 -35.7421875 18.9453125 C-35.04689797 11.08319245 -31.38995981 6.95041296 -25.53515625 1.9453125 C-18.47077988 -2.92213491 -7.84396301 -3.47595223 0 0 Z " fill="#0F334C" transform="translate(35.4375,1.5)"/>
<path d="M0 0 C5.82485779 3.51996782 10.54466582 8.98962934 12.5625 15.5 C13.36764105 23.33608208 13.68710392 31.11922577 8.5625 37.5 C3.75801361 42.54521222 -0.59927055 46.10562995 -7.70703125 46.8359375 C-16.22326573 46.92983204 -22.11345494 46.6177288 -28.40234375 40.62890625 C-34.7841668 33.72505269 -35.91792252 28.29832071 -35.7421875 18.9453125 C-35.04689797 11.08319245 -31.38995981 6.95041296 -25.53515625 1.9453125 C-18.47077988 -2.92213491 -7.84396301 -3.47595223 0 0 Z M-21.4375 3.5 C-19.72104611 4.64430259 -17.99654417 5.77717223 -16.25 6.875 C-15.651875 7.41125 -15.05375 7.9475 -14.4375 8.5 C-14.4375 9.82 -14.4375 11.14 -14.4375 12.5 C-15.015 12.190625 -15.5925 11.88125 -16.1875 11.5625 C-18.30645512 10.56188231 -20.1301424 9.8845596 -22.4375 9.5 C-23.4275 9.995 -23.4275 9.995 -24.4375 10.5 C-24.4375 9.51 -24.4375 8.52 -24.4375 7.5 C-28.60253903 9.24126632 -29.8335407 11.21337553 -31.6796875 15.2109375 C-33.30290573 20.1140606 -33.02508272 24.70052791 -31.4375 29.5625 C-31.1075 30.201875 -30.7775 30.84125 -30.4375 31.5 C-28.7875 31.5 -27.1375 31.5 -25.4375 31.5 C-25.7675 33.48 -26.0975 35.46 -26.4375 37.5 C-20.06194823 42.68013581 -15.75497903 43.85389172 -7.625 43.1875 C-4.30227447 42.67476321 -4.30227447 42.67476321 -1.4375 40.5 C-2.406875 40.108125 -3.37625 39.71625 -4.375 39.3125 C-7.4375 37.5 -7.4375 37.5 -8.3125 34.8125 C-8.35375 34.049375 -8.395 33.28625 -8.4375 32.5 C-7.880625 32.809375 -7.32375 33.11875 -6.75 33.4375 C-4.31209567 34.55761821 -2.07525814 35.06037364 0.5625 35.5 C1.26516613 32.52425724 1.26516613 32.52425724 1.5625 29.5 C2.5525 31.15 3.5425 32.8 4.5625 34.5 C8.30157104 32.00728597 8.54163078 30.81906209 9.5625 26.5 C9.97973107 21.58689132 10.04967023 17.86241762 7.5625 13.5 C6.5725 13.5 5.5825 13.5 4.5625 13.5 C4.48 12.55125 4.3975 11.6025 4.3125 10.625 C3.91175077 7.39538209 3.91175077 7.39538209 1.5 6.125 C0.860625 5.91875 0.22125 5.7125 -0.4375 5.5 C-0.4375 4.84 -0.4375 4.18 -0.4375 3.5 C-2.16557318 3.16104344 -3.89501974 2.82908475 -5.625 2.5 C-6.58792969 2.314375 -7.55085938 2.12875 -8.54296875 1.9375 C-13.52121723 1.18505219 -16.83459129 1.39581316 -21.4375 3.5 Z " fill="#082337" transform="translate(35.4375,1.5)"/>
<path d="M0 0 C0 0.66 0 1.32 0 2 C0.639375 2.20625 1.27875 2.4125 1.9375 2.625 C4 4 4 4 4.75 7.125 C4.87375 8.548125 4.87375 8.548125 5 10 C5.9590625 10.1546875 5.9590625 10.1546875 6.9375 10.3125 C7.618125 10.539375 8.29875 10.76625 9 11 C10.79750058 16.39250175 10.76681926 21.81246104 8.5 27.0625 C8.005 28.031875 7.51 29.00125 7 30 C6.01 30 5.02 30 4 30 C3.34 28.02 2.68 26.04 2 24 C2 24.99 2 25.98 2 27 C1.68911632 28.67099977 1.35919668 30.33871537 1 32 C-0.65 31.67 -2.3 31.34 -4 31 C-4 29.02 -4 27.04 -4 25 C-5.32 24.67 -6.64 24.34 -8 24 C-8 22.35 -8 20.7 -8 19 C-8.66 19 -9.32 19 -10 19 C-9.34 17.35 -8.68 15.7 -8 14 C-8.66 14 -9.32 14 -10 14 C-10.33 15.32 -10.66 16.64 -11 18 C-11.66 18 -12.32 18 -13 18 C-13.02578125 17.09636719 -13.0515625 16.19273438 -13.078125 15.26171875 C-13.13484375 14.08222656 -13.1915625 12.90273438 -13.25 11.6875 C-13.29640625 10.51574219 -13.3428125 9.34398437 -13.390625 8.13671875 C-13.69873912 4.94706612 -13.69873912 4.94706612 -15.859375 3.20703125 C-16.91898438 2.60955078 -16.91898438 2.60955078 -18 2 C-18.99 1.34 -19.98 0.68 -21 0 C-13.92002185 -3.53998908 -7.24243982 -2.06926852 0 0 Z " fill="#193E58" transform="translate(35,5)"/>
<path d="M0 0 C0.66 0 1.32 0 2 0 C2 0.99 2 1.98 2 3 C3.65 2.67 5.3 2.34 7 2 C7.6875 4.25 7.6875 4.25 8 7 C6.5625 9.3125 6.5625 9.3125 5 11 C6.98 11.66 8.96 12.32 11 13 C11 13.33 11 13.66 11 14 C9.02 14.33 7.04 14.66 5 15 C7.97 15.33 10.94 15.66 14 16 C13.0625 18.375 13.0625 18.375 11 21 C8.06562476 22.09319862 5.09021663 22.54802954 2 23 C0.2365625 23.309375 0.2365625 23.309375 -1.5625 23.625 C-2.366875 23.74875 -3.17125 23.8725 -4 24 C-6.35636623 19.43454044 -6.8263903 15.02315675 -6 10 C-4.49672765 6.47433967 -2.74167095 2.74167095 0 0 Z " fill="#183B54" transform="translate(9,9)"/>
<path d="M0 0 C0.99 0.495 1.98 0.99 3 1.5 C3 2.16 3 2.82 3 3.5 C2.01 3.995 2.01 3.995 1 4.5 C1 5.82 1 7.14 1 8.5 C0.05125 8.665 -0.8975 8.83 -1.875 9 C-5.08126412 10.12222102 -5.08126412 10.12222102 -5.84375 12.4140625 C-6.32618625 14.42184864 -6.67119562 16.46141284 -7 18.5 C-7.66 18.5 -8.32 18.5 -9 18.5 C-9.02578125 17.59636719 -9.0515625 16.69273438 -9.078125 15.76171875 C-9.13484375 14.58222656 -9.1915625 13.40273438 -9.25 12.1875 C-9.29640625 11.01574219 -9.3428125 9.84398437 -9.390625 8.63671875 C-9.69873912 5.44706612 -9.69873912 5.44706612 -11.859375 3.70703125 C-12.91898438 3.10955078 -12.91898438 3.10955078 -14 2.5 C-14.99 1.84 -15.98 1.18 -17 0.5 C-11.30895144 -2.34552428 -5.77040207 -2.4646859 0 0 Z " fill="#306488" transform="translate(31,4.5)"/>
<path d="M0 0 C0.66 0 1.32 0 2 0 C2.03867187 1.35544922 2.03867187 1.35544922 2.078125 2.73828125 C2.13484375 3.91777344 2.1915625 5.09726562 2.25 6.3125 C2.29640625 7.48425781 2.3428125 8.65601563 2.390625 9.86328125 C2.69873912 13.05293388 2.69873912 13.05293388 4.859375 14.79296875 C5.56578125 15.19128906 6.2721875 15.58960938 7 16 C7.99 16.66 8.98 17.32 10 18 C2.81221969 20.80498744 -2.85125229 20.33428497 -10 18 C-10 15 -10 15 -8 13 C-8 12.01 -8 11.02 -8 10 C-7.05125 9.835 -6.1025 9.67 -5.125 9.5 C-1.91873588 8.37777898 -1.91873588 8.37777898 -1.15625 6.0859375 C-0.67381375 4.07815136 -0.32880438 2.03858716 0 0 Z " fill="#2E5D7E" transform="translate(24,25)"/>
<path d="M0 0 C0.99 0.33 1.98 0.66 3 1 C4.79750058 6.39250175 4.76681926 11.81246104 2.5 17.0625 C2.005 18.031875 1.51 19.00125 1 20 C0.01 20 -0.98 20 -2 20 C-4.27221369 15.62783431 -3.90528745 13.01734401 -2.6875 8.3125 C-2.40261719 7.17425781 -2.11773437 6.03601563 -1.82421875 4.86328125 C-1 2 -1 2 0 0 Z " fill="#295778" transform="translate(41,15)"/>
<path d="M0 0 C0.625 1.875 0.625 1.875 1 4 C-1 6 -1 6 -3.625 6.125 C-4.40875 6.08375 -5.1925 6.0425 -6 6 C-6 6.99 -6 7.98 -6 9 C-4.68 9.33 -3.36 9.66 -2 10 C-3.45463481 10.38909985 -4.91391207 10.76088029 -6.375 11.125 C-7.18710938 11.33382812 -7.99921875 11.54265625 -8.8359375 11.7578125 C-9.55007813 11.83773437 -10.26421875 11.91765625 -11 12 C-11.66 11.34 -12.32 10.68 -13 10 C-12.80882285 7.00489133 -12.42426865 4.74870939 -10.9375 2.125 C-7.76918698 0.28533437 -4.61773684 0.88329881 -1 1 C-0.67 0.67 -0.34 0.34 0 0 Z " fill="#12344D" transform="translate(22,29)"/>
<path d="M0 0 C0 9.375 0 9.375 -1 14 C-2.65 13.67 -4.3 13.34 -6 13 C-6 11.02 -6 9.04 -6 7 C-7.32 6.67 -8.64 6.34 -10 6 C-10 4.68 -10 3.36 -10 2 C-8.52112267 1.66538533 -7.04188942 1.33234333 -5.5625 1 C-4.32693359 0.7215625 -4.32693359 0.7215625 -3.06640625 0.4375 C-1 0 -1 0 0 0 Z " fill="#26506E" transform="translate(37,23)"/>
<path d="M0 0 C1.62490954 -0.02698189 3.24994633 -0.04638757 4.875 -0.0625 C5.77992187 -0.07410156 6.68484375 -0.08570313 7.6171875 -0.09765625 C10 0 10 0 12 1 C10.92598892 3.91517292 10.22189824 5.77810176 8 8 C5.6171875 8.1953125 5.6171875 8.1953125 2.875 8.125 C1.50988281 8.09792969 1.50988281 8.09792969 0.1171875 8.0703125 C-0.58148437 8.04710937 -1.28015625 8.02390625 -2 8 C-1.01 6.35 -0.02 4.7 1 3 C0.01 3.33 -0.98 3.66 -2 4 C-1.34 2.68 -0.68 1.36 0 0 Z " fill="#76B0DA" transform="translate(27,15)"/>
<path d="M0 0 C0.103125 0.53625 0.20625 1.0725 0.3125 1.625 C1.18092697 4.62502044 2.55620296 7.2379535 4 10 C2.35 10.33 0.7 10.66 -1 11 C-1.33 12.65 -1.66 14.3 -2 16 C-8.875 13.125 -8.875 13.125 -10 12 C-10.04063832 10.33382885 -10.042721 8.66611905 -10 7 C-9.01 6.67 -8.02 6.34 -7 6 C-6.01 7.485 -6.01 7.485 -5 9 C-3.68 9 -2.36 9 -1 9 C-1.20625 8.071875 -1.4125 7.14375 -1.625 6.1875 C-2 3 -2 3 0 0 Z " fill="#0B293F" transform="translate(37,27)"/>
<path d="M0 0 C2.0625 0.4375 2.0625 0.4375 4 1 C3.45276317 4.37462715 2.9451 6.08235 1 9 C2.98 9.66 4.96 10.32 7 11 C7 11.33 7 11.66 7 12 C4.03 12.66 1.06 13.32 -2 14 C-2 2 -2 2 0 0 Z " fill="#316284" transform="translate(13,11)"/>
<path d="M0 0 C1.32 0.33 2.64 0.66 4 1 C4 4.3 4 7.6 4 11 C4.66 11.33 5.32 11.66 6 12 C2.7 12 -0.6 12 -4 12 C-3.67 11.34 -3.34 10.68 -3 10 C-0.9375 9.375 -0.9375 9.375 1 9 C-0.32 8.34 -1.64 7.68 -3 7 C-2.5359375 6.1028125 -2.5359375 6.1028125 -2.0625 5.1875 C-0.89790296 2.91043228 -0.89790296 2.91043228 0 0 Z " fill="#264F6D" transform="translate(17,13)"/>
<path d="M0 0 C1.37478516 0.01740234 1.37478516 0.01740234 2.77734375 0.03515625 C3.69644531 0.04417969 4.61554687 0.05320312 5.5625 0.0625 C6.27277344 0.07410156 6.98304687 0.08570312 7.71484375 0.09765625 C6.90234375 2.47265625 6.90234375 2.47265625 4.71484375 5.09765625 C1.09459926 6.16023538 -2.54139862 6.67179587 -6.28515625 7.09765625 C-2.87189473 0.12273054 -2.87189473 0.12273054 0 0 Z " fill="#84BDE6" transform="translate(15.28515625,24.90234375)"/>
<path d="M0 0 C2 1 2 1 3.3125 3.4375 C5.27286429 6.41434947 6.64662411 7.00305041 10 8 C6.55549263 10.29633824 4.06187717 10.54016485 0 11 C-2.21538462 4.6 -2.21538462 4.6 -1.125 1.5625 C-0.75375 1.046875 -0.3825 0.53125 0 0 Z " fill="#3D77A1" transform="translate(24,34)"/>
<path d="M0 0 C2.5 1.125 2.5 1.125 5 3 C5.5883927 6.95063669 5.08658519 9.60929907 3 13 C2.34 13 1.68 13 1 13 C-0.32229189 10.35541621 -0.09677194 8.32238699 -0.0625 5.375 C-0.05347656 4.37210938 -0.04445312 3.36921875 -0.03515625 2.3359375 C-0.02355469 1.56507812 -0.01195312 0.79421875 0 0 Z " fill="#4584B1" transform="translate(4,20)"/>
<path d="M0 0 C1.32 0.33 2.64 0.66 4 1 C4.125 3.875 4.125 3.875 4 7 C3.34 7.66 2.68 8.32 2 9 C1.01 8.34 0.02 7.68 -1 7 C-1.33 9.31 -1.66 11.62 -2 14 C-2.33 14 -2.66 14 -3 14 C-3.32374517 8.49633208 -3.53286034 4.56327794 0 0 Z " fill="#2C5C7E" transform="translate(6,14)"/>
<path d="M0 0 C0.99 0.33 1.98 0.66 3 1 C3 4.63 3 8.26 3 12 C0.525 11.01 0.525 11.01 -2 10 C-2.17942163 6.05272412 -2.09350689 3.4019487 0 0 Z " fill="#4E93C5" transform="translate(41,15)"/>
<path d="M0 0 C0 2.64 0 5.28 0 8 C-0.99 8.495 -0.99 8.495 -2 9 C-2.763125 8.21625 -3.52625 7.4325 -4.3125 6.625 C-6.90891805 3.92742283 -6.90891805 3.92742283 -10 2 C-6.49223216 0.39644899 -3.85645121 -0.22036864 0 0 Z " fill="#3C76A0" transform="translate(24,3)"/>
<path d="M0 0 C0.66 0.66 1.32 1.32 2 2 C1.7578125 4.3828125 1.7578125 4.3828125 1.125 7.125 C0.92132813 8.03507812 0.71765625 8.94515625 0.5078125 9.8828125 C0.25644531 10.93082031 0.25644531 10.93082031 0 12 C-0.66 12 -1.32 12 -2 12 C-2.33 11.01 -2.66 10.02 -3 9 C-3.99 9.495 -3.99 9.495 -5 10 C-8.5 10.1875 -8.5 10.1875 -12 10 C-12.66 9.34 -13.32 8.68 -14 8 C-13.32453125 8.00902344 -12.6490625 8.01804687 -11.953125 8.02734375 C-6.68808819 8.03217693 -6.68808819 8.03217693 -2.4453125 5.375 C-1.21363994 3.23991035 -1.21363994 3.23991035 0 0 Z " fill="#224863" transform="translate(39,15)"/>
<path d="M0 0 C0 0.99 0 1.98 0 3 C-3.20380017 5.13586678 -4.01939967 5.23132175 -7.6875 5.125 C-8.89986328 5.09792969 -8.89986328 5.09792969 -10.13671875 5.0703125 C-11.05904297 5.03550781 -11.05904297 5.03550781 -12 5 C-11.67 4.01 -11.34 3.02 -11 2 C-8.70961976 0.85480988 -7.46931463 0.92648088 -4.9375 1 C-3.638125 1 -2.33875 1 -1 1 C-0.67 0.67 -0.34 0.34 0 0 Z " fill="#40779E" transform="translate(22,29)"/>
<path d="M0 0 C2.86724686 0.57344937 3.8614515 0.8614515 6 3 C6.1953125 5.1640625 6.1953125 5.1640625 6.125 7.625 C6.10695313 8.44226562 6.08890625 9.25953125 6.0703125 10.1015625 C6.03550781 11.04128906 6.03550781 11.04128906 6 12 C5.67 12 5.34 12 5 12 C5 10.35 5 8.7 5 7 C4.01 7.33 3.02 7.66 2 8 C0.23537317 4.91190305 0 3.76687864 0 0 Z " fill="#0B2A41" transform="translate(16,7)"/>
<path d="M0 0 C1.31571603 0.2547514 2.62760376 0.52934141 3.9375 0.8125 C4.66839844 0.96332031 5.39929688 1.11414063 6.15234375 1.26953125 C6.76207031 1.51058594 7.37179688 1.75164063 8 2 C8.33 2.99 8.66 3.98 9 5 C6.1875 5.6875 6.1875 5.6875 3 6 C1.125 4.75 1.125 4.75 0 3 C0 2.01 0 1.02 0 0 Z " fill="#8CBADB" transform="translate(25,3)"/>
<path d="M0 0 C3.375 -0.125 3.375 -0.125 7 0 C9 2 9 2 9 5 C4.545 4.01 4.545 4.01 0 3 C0 2.01 0 1.02 0 0 Z " fill="#8CBBDD" transform="translate(14,40)"/>
<path d="M0 0 C1.65 0.33 3.3 0.66 5 1 C4.67 2.65 4.34 4.3 4 6 C2.35 5.67 0.7 5.34 -1 5 C-0.67 3.35 -0.34 1.7 0 0 Z " fill="#A0C8E5" transform="translate(32,31)"/>
<path d="M0 0 C2.0625 0.4375 2.0625 0.4375 4 1 C3.67 2.65 3.34 4.3 3 6 C1.35 5.67 -0.3 5.34 -2 5 C-1.125 1.125 -1.125 1.125 0 0 Z " fill="#A1CBE9" transform="translate(13,11)"/>
<path d="M0 0 C1.5625 1.1875 1.5625 1.1875 3 3 C2.6875 5.6875 2.6875 5.6875 2 8 C0.68 7.34 -0.64 6.68 -2 6 C-2 4.35 -2 2.7 -2 1 C-1.34 0.67 -0.68 0.34 0 0 Z " fill="#0B293E" transform="translate(29,33)"/>
<path d="M0 0 C0.33 0 0.66 0 1 0 C1.0270043 1.45823212 1.04639787 2.91660675 1.0625 4.375 C1.07410156 5.18710937 1.08570313 5.99921875 1.09765625 6.8359375 C1 9 1 9 0 11 C-1.65 10.67 -3.3 10.34 -5 10 C-5 8.68 -5 7.36 -5 6 C-3.68 6.33 -2.36 6.66 -1 7 C-0.67 4.69 -0.34 2.38 0 0 Z " fill="#366D94" transform="translate(44,19)"/>
<path d="M0 0 C1.32 0.33 2.64 0.66 4 1 C4 2.65 4 4.3 4 6 C1.69 6 -0.62 6 -3 6 C-2.01 4.02 -1.02 2.04 0 0 Z " fill="#1D425C" transform="translate(17,13)"/>
<path d="M0 0 C0 1.98 0 3.96 0 6 C-5.75 4.25 -5.75 4.25 -8 2 C-1.125 0 -1.125 0 0 0 Z " fill="#316488" transform="translate(37,23)"/>
<path d="M0 0 C0.66 0.33 1.32 0.66 2 1 C2 1.99 2 2.98 2 4 C2.66 4.33 3.32 4.66 4 5 C2.68 7.31 1.36 9.62 0 12 C-0.66 11.34 -1.32 10.68 -2 10 C-1.7578125 7.6171875 -1.7578125 7.6171875 -1.125 4.875 C-0.92132813 3.96492188 -0.71765625 3.05484375 -0.5078125 2.1171875 C-0.34023437 1.41851563 -0.17265625 0.71984375 0 0 Z " fill="#224864" transform="translate(9,21)"/>
<path d="M0 0 C1.485 0.99 1.485 0.99 3 2 C3 2.66 3 3.32 3 4 C4.65 4 6.3 4 8 4 C7.67 4.99 7.34 5.98 7 7 C5.35 7.33 3.7 7.66 2 8 C1.34 5.36 0.68 2.72 0 0 Z " fill="#265271" transform="translate(25,6)"/>
<path d="M0 0 C0 0.99 0 1.98 0 3 C-1 4 -1 4 -3.5625 4.0625 C-4.7690625 4.0315625 -4.7690625 4.0315625 -6 4 C-6.33 5.32 -6.66 6.64 -7 8 C-7.66 8 -8.32 8 -9 8 C-8.67 6.35 -8.34 4.7 -8 3 C-6.865625 2.690625 -5.73125 2.38125 -4.5625 2.0625 C-1.21224901 1.37075469 -1.21224901 1.37075469 0 0 Z " fill="#193F5A" transform="translate(22,31)"/>
<path d="M0 0 C0.103125 0.53625 0.20625 1.0725 0.3125 1.625 C1.18092697 4.62502044 2.55620296 7.2379535 4 10 C2.68 10.33 1.36 10.66 0 11 C-1.7578125 5.04296875 -1.7578125 5.04296875 -2 3 C-1.34 2.01 -0.68 1.02 0 0 Z " fill="#13364F" transform="translate(37,27)"/>
<path d="M0 0 C2.31 0.66 4.62 1.32 7 2 C3.5647952 4.29013653 2.014669 4.17842973 -2 4 C-1.34 2.68 -0.68 1.36 0 0 Z " fill="#4A8EBE" transform="translate(27,40)"/>
<path d="M0 0 C1.670625 0.061875 1.670625 0.061875 3.375 0.125 C3.045 1.115 2.715 2.105 2.375 3.125 C-0.265 2.795 -2.905 2.465 -5.625 2.125 C-3.625 0.125 -3.625 0.125 0 0 Z " fill="#4788B7" transform="translate(19.625,3.875)"/>
<path d="M0 0 C2.475 0.99 2.475 0.99 5 2 C4.67 3.32 4.34 4.64 4 6 C2.68 5.34 1.36 4.68 0 4 C0 2.68 0 1.36 0 0 Z " fill="#4482AF" transform="translate(39,21)"/>
<path d="M0 0 C2.97 0.495 2.97 0.495 6 1 C5.67 1.99 5.34 2.98 5 4 C4.01 3.34 3.02 2.68 2 2 C1.67 4.31 1.34 6.62 1 9 C0.67 9 0.34 9 0 9 C0 6.03 0 3.06 0 0 Z " fill="#33688E" transform="translate(3,19)"/>
<path d="M0 0 C1.32 0.33 2.64 0.66 4 1 C3.67 2.65 3.34 4.3 3 6 C2.34 6 1.68 6 1 6 C0.67 4.02 0.34 2.04 0 0 Z " fill="#5199CB" transform="translate(4,27)"/>
<path d="M0 0 C1.32 0.33 2.64 0.66 4 1 C4 2.65 4 4.3 4 6 C2.68 5.67 1.36 5.34 0 5 C0 3.35 0 1.7 0 0 Z " fill="#1A3E57" transform="translate(27,29)"/>
</svg>
